<?xml version="1.0" encoding="utf-8"?>
<!-- Generator: Adobe Illustrator 22.1.0, SVG Export Plug-In . SVG Version: 6.00 Build 0)  -->
<svg version="1.1" id="Layer_1" xmlns="http://www.w3.org/2000/svg" xmlns:xlink="http://www.w3.org/1999/xlink" x="0px" y="0px"
	 viewBox="0 0 180 44" style="enable-background:new 0 0 180 44;" xml:space="preserve">
<style type="text/css">
	.st0{fill:none;}
	.st1{enable-background:new    ;}
	.st2{fill:#FFFFFF;}
</style>
<rect x="0.2" y="1.5" class="st0" width="598.9" height="358.6"/>
<g class="st1">
	<path class="st2" d="M6.2,39.8C3.4,37.1,2,33.9,2,30.1h2.8c0,3.1,1.1,5.7,3.4,7.9c2.3,2.2,5,3.3,8.2,3.3c3.5,0,6.5-0.9,9-2.8
		c2.5-1.9,3.7-4.1,3.7-6.7c0-2.3-1.1-4.2-3.3-5.7c-2.1-1.5-5-2.5-8.6-2.8c-4.4-0.4-7.9-1.6-10.6-3.8c-2.6-2.1-4-4.8-4-7.9
		c0-3.1,1.3-5.7,4-7.9c2.7-2.2,5.9-3.3,9.7-3.3c4.1,0,7.6,1.1,10.5,3.4c2.9,2.3,4.3,5,4.3,8.2h-2.8c0-2.5-1.2-4.6-3.5-6.3
		c-2.3-1.8-5.1-2.6-8.5-2.6c-3,0-5.6,0.8-7.8,2.5c-2.1,1.6-3.2,3.6-3.2,6c0,2.3,1.1,4.3,3.3,5.8c2.3,1.6,5.3,2.5,9,2.9
		C22,20.7,25.4,21.9,28,24c2.6,2.1,3.8,4.7,3.8,7.7c0,3.3-1.5,6.2-4.5,8.6c-3,2.4-6.7,3.5-10.9,3.5C12.4,43.8,9,42.5,6.2,39.8z"/>
	<path class="st2" d="M39,42.8V1.5h18.6c2.7,0,5,1.1,6.8,3.3c1.9,2.2,2.9,4.8,2.9,7.9c0,3.2-1,5.9-2.9,8.2c-1.9,2.3-4.1,3.4-6.8,3.4
		H41.7v18.5H39z M57.1,21.6c2,0,3.8-0.8,5.2-2.5c1.4-1.6,2.2-3.6,2.2-6c0-2.5-0.7-4.6-2.2-6.3c-1.4-1.7-3.2-2.6-5.2-2.6H41.7v17.4
		H57.1z"/>
	<path class="st2" d="M85.8,42.8V24.8L70,1.5h4l13.4,20.1l13-20.1h4L89,24.8v17.9H85.8z"/>
	<path class="st2" d="M110,42.8V1.5h19.7c2.8,0,5.2,1.1,7.2,3.2c2,2.1,3,4.6,3,7.7c0,2.6-0.6,4.9-1.8,6.9c-1.3,1.9-2.8,3.1-4.7,3.4
		c1.7,0.5,3.1,1.9,4.2,4.4c1.1,2.5,1.6,5.4,1.6,8.9c0,1.9,0,3.4,0.1,4.4c0.1,1.2,0.3,2,0.6,2.4h-2.8c-0.5-0.6-0.8-1.6-0.9-3.1
		l-0.2-5.9c0-2.8-0.7-5.2-2-7.2c-1.3-1.9-2.9-2.9-4.8-2.9h-16.4v19.1H110z M129.2,21.1c2.2,0,4.1-0.8,5.6-2.5c1.5-1.6,2.3-3.6,2.3-6
		c0-2.3-0.8-4.3-2.3-6c-1.6-1.6-3.5-2.4-5.6-2.4h-16.4v16.9H129.2z"/>
	<path class="st2" d="M148.2,42.8V1.5h26.9v2.7H151v15.9H173v2.6H151v17.5h24.1v2.6H148.2z"/>
</g>
</svg>
