<svg version="1" xmlns="http://www.w3.org/2000/svg" width="346.667" height="346.667" viewBox="0 0 260.000000 260.000000"><path d="M0 130v130h260V0H0v130zm140.1-60.6c16.8 3.6 27.3 14.4 28.6 29.5l.6 6.1h-14l-2.1-5.8c-4.5-12-11.7-17.2-24.3-17.2-13.1 0-21.5 4.5-24 13.1-.9 3-.9 4.8 0 7.9 2.5 8.6 10.4 13.9 25.3 17.1 20.1 4.2 32.3 10.3 38.3 18.7 2.5 3.6 3 5.5 3.3 11.5.5 8.9-.8 14-5.1 20.3-6.2 9.2-18.4 15.2-32.8 16.1-22.3 1.5-39.2-8.6-44.9-26.6-1.1-3.5-2-8.1-2-10.2V146h15v3.1c0 8.5 6.2 17.9 14.3 21.8 12.6 6 32.6 1.9 38.7-8.1 4.9-8.1 3.1-16.5-4.6-22.4-4-3-7-4-26.9-8.8-15.1-3.6-26.6-11.4-31.1-21.1-5.1-10.8-2.2-25.4 6.4-32.5 10.2-8.5 26.2-11.8 41.3-8.6z"/></svg>